<?xml version="1.0" standalone="no"?><!DOCTYPE svg PUBLIC "-//W3C//DTD SVG 1.1//EN" "http://www.w3.org/Graphics/SVG/1.1/DTD/svg11.dtd"><svg t="1710670815049" class="icon" viewBox="0 0 1024 1024" version="1.1" xmlns="http://www.w3.org/2000/svg" p-id="2836" xmlns:xlink="http://www.w3.org/1999/xlink" width="200" height="200"><path d="M341.333333 298.666667a42.666667 42.666667 0 1 1 0 85.333333 42.666667 42.666667 0 0 1 0-85.333333z m426.666667 256a42.666667 42.666667 0 1 1 0 85.333333 42.666667 42.666667 0 0 1 0-85.333333z m-213.333333 0a42.666667 42.666667 0 1 1 0 85.333333 42.666667 42.666667 0 0 1 0-85.333333z m-42.666667-256a42.666667 42.666667 0 1 1 0 85.333333 42.666667 42.666667 0 0 1 0-85.333333z m-107.221333 407.168a416.64 416.64 0 0 1-26.026667-2.432l-132.693333 58.709333a71.68 71.68 0 0 1-81.536-17.578667 74.026667 74.026667 0 0 1-12.074667-82.432l23.722667-48.938666C118.485333 560.341333 85.333333 490.496 85.333333 417.194667 85.333333 255.658667 240.042667 128 426.666667 128c180.608 0 331.306667 119.552 340.864 273.621333 99.754667 34.602667 171.136 116.565333 171.136 214.656 0 57.088-25.173333 111.317333-69.034667 153.088l15.232 30.72a66.218667 66.218667 0 0 1-10.837333 74.666667 65.92 65.92 0 0 1-74.666667 15.829333l-101.674667-44.074666c-128.426667 14.848-246.485333-45.738667-292.906666-140.672zM384 618.026667v-1.706667C384 485.888 510.122667 384 661.333333 384c6.016 0 12.032 0.170667 17.962667 0.469333C659.626667 288.938667 555.093333 213.333333 426.666667 213.333333 283.904 213.333333 170.666667 306.773333 170.666667 417.194667c0 56.021333 30.165333 110.805333 83.712 149.845333a42.666667 42.666667 0 0 1 13.226666 53.077333l-24.149333 49.834667 111.957333-49.493333a42.666667 42.666667 0 0 1 23.893334-3.157334l4.693333 0.725334z m378.112 126.464l29.525333-21.12c39.68-28.330667 61.696-67.456 61.696-107.093334C853.333333 537.514667 768.938667 469.333333 661.333333 469.333333c-107.605333 0-192 68.181333-192 146.944 0 89.984 105.6 162.986667 227.968 144.213334l12.16-1.877334 11.264 4.906667 64.682667 27.989333-23.296-47.018666z" fill="#707070" p-id="2837"></path></svg>